<svg width="40" height="40" viewBox="0 0 40 40" fill="none" xmlns="http://www.w3.org/2000/svg">
<path d="M20 9.99992V36.6666M20 9.99992H14.1071C13.2389 9.99992 12.4062 9.64873 11.7922 9.02361C11.1782 8.39849 10.8333 7.55064 10.8333 6.66659C10.8333 5.78253 11.1782 4.93468 11.7922 4.30956C12.4062 3.68444 13.2389 3.33325 14.1071 3.33325C18.6905 3.33325 20 9.99992 20 9.99992ZM20 9.99992H25.8929C26.7611 9.99992 27.5938 9.64873 28.2078 9.02361C28.8217 8.39849 29.1667 7.55064 29.1667 6.66659C29.1667 5.78253 28.8217 4.93468 28.2078 4.30956C27.5938 3.68444 26.7611 3.33325 25.8929 3.33325C21.3095 3.33325 20 9.99992 20 9.99992ZM33.3333 18.3333V31.3333C33.3333 33.2001 33.3333 34.1335 32.97 34.8466C32.6504 35.4738 32.1405 35.9837 31.5133 36.3033C30.8003 36.6666 29.8668 36.6666 28 36.6666L12 36.6666C10.1332 36.6666 9.19973 36.6666 8.48669 36.3033C7.85949 35.9837 7.34955 35.4738 7.02997 34.8466C6.66666 34.1335 6.66666 33.2001 6.66666 31.3333V18.3333M3.33333 12.6666L3.33333 15.6666C3.33333 16.6 3.33333 17.0667 3.51498 17.4232C3.67477 17.7368 3.92974 17.9918 4.24334 18.1516C4.59986 18.3333 5.06657 18.3333 6 18.3333L34 18.3333C34.9334 18.3333 35.4001 18.3333 35.7566 18.1516C36.0703 17.9918 36.3252 17.7368 36.485 17.4232C36.6667 17.0667 36.6667 16.6 36.6667 15.6666V12.6666C36.6667 11.7332 36.6667 11.2665 36.485 10.9099C36.3252 10.5963 36.0703 10.3414 35.7566 10.1816C35.4001 9.99992 34.9334 9.99992 34 9.99992L6 9.99992C5.06657 9.99992 4.59986 9.99992 4.24334 10.1816C3.92974 10.3414 3.67477 10.5963 3.51498 10.9099C3.33333 11.2665 3.33333 11.7332 3.33333 12.6666Z" stroke="#43A548" stroke-width="3" stroke-linecap="round" stroke-linejoin="round"/>
</svg>
